<svg width="547" height="205" viewBox="0 0 547 205" fill="none" xmlns="http://www.w3.org/2000/svg">
<path d="M113.889 22.7778H45.5556V182.222H113.889V205H22.7778V22.7778H0V0H113.889V22.7778Z" fill="url(#paint0_linear_76_1716)"/>
<path d="M227.778 22.7778H159.444V45.5556H205V68.3333H159.444V91.1111H227.778V113.889H159.444V136.667H205V159.444H159.444V182.222H227.778V205H136.667V0H227.778V22.7778Z" fill="url(#paint1_linear_76_1716)"/>
<path d="M91.1111 159.444H68.3333V45.5556H91.1111V159.444Z" fill="url(#paint2_linear_76_1716)"/>
<path fill-rule="evenodd" clip-rule="evenodd" d="M546.667 113.889H501.111V205H478.333V113.889H444.166C451.515 123.688 455.556 135.663 455.556 148.056C455.556 163.158 449.556 177.642 438.877 188.321C428.263 198.935 413.891 204.925 398.889 204.998V205H364.444V113.889H304.722C296.774 113.889 288.908 117.198 282.924 123.489C276.902 129.819 273.333 138.638 273.333 148.056C273.333 157.473 276.902 166.292 282.924 172.623C288.908 178.913 296.774 182.222 304.722 182.222H341.667V205H304.444V204.998C290.18 204.921 276.514 198.933 266.42 188.321C256.263 177.643 250.556 163.159 250.556 148.056C250.556 135.663 254.399 123.687 261.389 113.889H250.556V45.5556C250.556 33.4875 256.543 21.8963 267.234 13.3431C277.911 4.80132 292.395 -6.60772e-07 307.5 0C322.605 9.96437e-07 337.089 4.80131 347.766 13.3431C358.457 21.8963 364.444 33.4875 364.444 45.5556V91.1111H387.222V45.5556C387.222 33.4735 392.022 21.8864 400.565 13.3431C409.109 4.79978 420.696 -5.2861e-07 432.778 0C444.86 8.64226e-07 456.447 4.79978 464.99 13.3431C465.665 14.0181 466.317 14.712 466.944 15.4237C467.572 14.712 468.224 14.0181 468.899 13.3431C477.442 4.79978 489.029 -5.2861e-07 501.111 0C513.193 8.64226e-07 524.78 4.79978 533.324 13.3431C541.867 21.8864 546.667 33.4735 546.667 45.5556V113.889ZM523.889 45.5556C523.889 39.5145 521.489 33.721 517.217 29.4493C512.946 25.1777 507.152 22.7778 501.111 22.7778C495.07 22.7778 489.277 25.1777 485.005 29.4493C480.733 33.721 478.333 39.5145 478.333 45.5556V91.1111H523.889V45.5556ZM387.222 182.222H398.611C407.673 182.222 416.363 178.623 422.771 172.215C429.178 165.808 432.778 157.117 432.778 148.056C432.778 138.994 429.178 130.303 422.771 123.896C416.363 117.488 407.673 113.889 398.611 113.889H387.222V182.222ZM273.333 101.647C282.368 94.894 293.221 91.1732 304.444 91.1127V91.1111H341.667V68.3333H273.333V101.647ZM432.778 22.7778C426.737 22.7778 420.943 25.1777 416.672 29.4493C412.4 33.721 410 39.5145 410 45.5556V91.1111H455.556V45.5556C455.556 39.5145 453.156 33.721 448.884 29.4493C444.612 25.1777 438.819 22.7778 432.778 22.7778ZM307.5 22.7778C296.999 22.7778 287.679 26.1566 281.463 31.1296C275.393 35.9855 273.333 41.3498 273.333 45.5556H341.667C341.667 41.3498 339.607 35.9855 333.537 31.1296C327.321 26.1566 318.001 22.7778 307.5 22.7778Z" fill="url(#paint3_linear_76_1716)"/>
<defs>
<linearGradient id="paint0_linear_76_1716" x1="4.98733e-06" y1="58.5714" x2="312.259" y2="412.066" gradientUnits="userSpaceOnUse">
<stop stop-color="#7D0000"/>
<stop offset="0.668326" stop-color="#FF0000"/>
<stop offset="1" stop-color="#FFBFBF"/>
</linearGradient>
<linearGradient id="paint1_linear_76_1716" x1="4.98733e-06" y1="58.5714" x2="312.259" y2="412.066" gradientUnits="userSpaceOnUse">
<stop stop-color="#7D0000"/>
<stop offset="0.668326" stop-color="#FF0000"/>
<stop offset="1" stop-color="#FFBFBF"/>
</linearGradient>
<linearGradient id="paint2_linear_76_1716" x1="4.98733e-06" y1="58.5714" x2="312.259" y2="412.066" gradientUnits="userSpaceOnUse">
<stop stop-color="#7D0000"/>
<stop offset="0.668326" stop-color="#FF0000"/>
<stop offset="1" stop-color="#FFBFBF"/>
</linearGradient>
<linearGradient id="paint3_linear_76_1716" x1="4.98733e-06" y1="58.5714" x2="312.259" y2="412.066" gradientUnits="userSpaceOnUse">
<stop stop-color="#7D0000"/>
<stop offset="0.668326" stop-color="#FF0000"/>
<stop offset="1" stop-color="#FFBFBF"/>
</linearGradient>
</defs>
</svg>
